<?xml version="1.0" encoding="utf-8"?>
<!-- Generator: Adobe Illustrator 16.0.0, SVG Export Plug-In . SVG Version: 6.00 Build 0)  -->
<!DOCTYPE svg PUBLIC "-//W3C//DTD SVG 1.1//EN" "http://www.w3.org/Graphics/SVG/1.1/DTD/svg11.dtd">
<svg version="1.1" id="Layer_1" xmlns="http://www.w3.org/2000/svg" xmlns:xlink="http://www.w3.org/1999/xlink" x="0px" y="0px"
	 width="30px" height="30px" viewBox="0 0 30 30" enable-background="new 0 0 30 30" xml:space="preserve">
<g>
	<path fill="#ffffffd4" enable-background="new    " d="M7.605,33.606c-3.496-0.303-6.238-3.236-6.238-6.811V15.291
		c0-2.133,0.995-4.143,2.69-5.436l9.297-7.092c2.448-1.868,5.843-1.868,8.291,0l0.629,0.479c-1.679-0.165-3.406,0.289-4.818,1.367
		L6.399,13.043c-0.587,0.447-0.931,1.143-0.931,1.881v13.718C5.469,30.597,6.289,32.36,7.605,33.606L7.605,33.606z"/>
	<path fill="#ffffff" d="M26.797,35H8.203C3.68,35,0,31.319,0,26.796V15.291c0-2.543,1.207-4.98,3.229-6.523l9.297-7.092
		c2.929-2.234,7.021-2.234,9.949,0l2.955,2.252V2.183c0-0.755,0.612-1.367,1.367-1.367s1.367,0.612,1.367,1.367v4.507
		c0,0.52-0.295,0.994-0.761,1.225s-1.021,0.178-1.436-0.137l-5.151-3.927c-1.953-1.489-4.681-1.489-6.633,0l-9.297,7.092
		c-1.348,1.028-2.152,2.653-2.152,4.349v11.505c0,3.016,2.453,5.47,5.469,5.47h18.594c3.016,0,5.469-2.454,5.469-5.47V15.291
		c0-1.716-0.796-3.348-2.128-4.363c-0.601-0.459-0.716-1.316-0.258-1.917s1.315-0.716,1.916-0.258
		C33.802,10.283,35,12.728,35,15.291v11.505C35,31.319,31.32,35,26.797,35z"/>
	<path fill="#e3dfdf" d="M16.475,17.498c0,0.943-0.766,1.709-1.709,1.709s-1.709-0.766-1.709-1.709c0-0.944,0.766-1.71,1.709-1.71
		S16.475,16.554,16.475,17.498z M20.234,15.789c-0.943,0-1.709,0.765-1.709,1.709c0,0.943,0.766,1.709,1.709,1.709
		s1.709-0.766,1.709-1.709C21.943,16.554,21.178,15.789,20.234,15.789z M14.766,21.258c-0.943,0-1.709,0.766-1.709,1.709
		c0,0.944,0.766,1.71,1.709,1.71s1.709-0.766,1.709-1.71C16.475,22.023,15.709,21.258,14.766,21.258z M20.234,21.258
		c-0.943,0-1.709,0.766-1.709,1.709c0,0.944,0.766,1.71,1.709,1.71s1.709-0.766,1.709-1.71
		C21.943,22.023,21.178,21.258,20.234,21.258z"/>
</g>
</svg>
